<svg width="160" height="39" viewBox="0 0 160 39" fill="none" xmlns="http://www.w3.org/2000/svg">
<g clip-path="url(#clip0_7197_480)">
<path d="M39.1244 14.1267L21.8271 0.512499C20.9005 -0.204036 19.562 -0.204036 18.6354 0.512499L11.4281 6.04006C11.1193 4.91407 10.1926 4.19754 8.9571 4.19754C7.51566 4.19754 6.3831 5.32352 6.3831 6.75659V9.92982L1.02917 14.0243C-0.10339 14.8432 -0.30931 16.481 0.514371 17.607C1.02917 18.2212 1.74989 18.6306 2.57357 18.6306C3.08837 18.6306 3.70613 18.4259 4.11797 18.1188L20.1798 5.83533L35.8297 18.1188C36.9622 19.0401 38.6096 18.8353 39.4333 17.7093C40.3599 16.5834 40.257 14.9456 39.1244 14.1267Z" fill="white"/>
<path d="M12.7671 26.4095C12.7671 27.8426 13.8996 28.9686 15.3411 28.9686H18.8417V22.9292H12.7671V26.4095Z" fill="white"/>
<path d="M27.6963 16.685C27.6963 15.252 26.5637 14.126 25.1223 14.126H21.6216V20.1653H27.6963V16.685Z" fill="white"/>
<path d="M18.9446 14.126H15.444C14.0026 14.126 12.87 15.252 12.87 16.685V20.1653H18.9446V14.126Z" fill="white"/>
<path d="M7.31014 30.2993C7.10422 30.4017 6.8983 30.504 6.69238 30.504C6.79534 31.0158 6.8983 31.4253 7.10422 31.9371C9.06046 37.4647 15.2381 40.3308 20.7979 38.3859C21.0038 38.2836 21.2098 38.1812 21.4157 38.1812C21.3127 37.6694 21.2098 37.2599 21.0038 36.7481C19.0476 31.2206 12.9729 28.3544 7.31014 30.2993Z" fill="#03B766"/>
<path d="M36.9627 22.1102C28.5199 22.1102 21.6216 28.9685 21.6216 37.3622C21.6216 37.5669 21.6216 37.7716 21.6216 37.9764L31.2999 29.685L22.1364 38.3858C22.6512 38.4882 23.166 38.4882 23.7838 38.4882C32.2265 38.4882 39.1248 31.6299 39.1248 23.2362C39.1248 22.9291 39.1248 22.622 39.1248 22.315C38.4041 22.2126 37.6834 22.1102 36.9627 22.1102Z" fill="#03B766"/>
<path d="M27.6963 22.9292H21.6216V28.9686C22.9601 26.4095 25.1223 24.2599 27.6963 22.9292Z" fill="white"/>
<path d="M61.982 16.071L54.8777 24.0553H62.4968C63.1146 24.0553 63.6294 24.1576 63.9382 24.4647C64.2471 24.7718 64.453 25.0789 64.453 25.5907C64.453 26.0001 64.2471 26.4096 63.9382 26.6143C63.6294 26.9214 63.1146 27.0238 62.4968 27.0238H51.8919C51.1712 27.0238 50.5534 26.819 50.2445 26.5119C49.8327 26.2049 49.7297 25.7954 49.7297 25.1812C49.7297 24.8741 49.8327 24.4647 50.1416 24.1576C50.4505 23.8505 50.9653 23.2364 51.7889 22.3151C52.6126 21.3938 53.4363 20.4726 54.157 19.756C54.8777 18.9371 55.4955 18.2206 56.1133 17.6064C56.731 16.8899 57.2458 16.3781 57.6577 15.8663C58.0695 15.3545 58.3784 15.0474 58.5843 14.6379H52.8185C51.9949 14.6379 51.3771 14.5356 50.9653 14.4332C50.5534 14.3308 50.3475 13.9214 50.3475 13.3072C50.3475 12.8978 50.5534 12.4883 50.8623 12.2836C51.1712 11.9765 51.583 11.8741 52.2008 11.8741H61.1583C61.982 11.8741 62.5998 11.9765 63.1146 12.2836C63.5264 12.4883 63.7323 13.0001 63.7323 13.6143C63.7323 13.819 63.7323 14.0238 63.6294 14.2285C63.5264 14.4332 63.4234 14.6379 63.3205 14.7403C63.2175 14.8426 63.1146 15.0474 62.9086 15.2521C62.3938 15.5592 62.1879 15.7639 61.982 16.071Z" fill="white"/>
<path d="M76.4994 25.1812C75.5727 25.8977 74.6461 26.4095 73.7195 26.819C72.7928 27.2284 71.8662 27.3308 70.7336 27.3308C69.704 27.3308 68.8803 27.1261 68.0567 26.7166C67.3359 26.3072 66.7182 25.7954 66.3063 25.0788C65.8945 24.3623 65.6886 23.6458 65.6886 22.9292C65.6886 21.9056 65.9975 20.9843 66.7182 20.1654C67.4389 19.4489 68.3655 18.9371 69.4981 18.63C69.704 18.5276 70.3218 18.4253 71.3514 18.2206C72.381 18.0158 73.2047 17.8111 73.9254 17.7087C74.6461 17.504 75.3668 17.2993 76.1905 17.0946C76.1905 16.071 75.9846 15.3544 75.5727 14.8426C75.1609 14.3308 74.4402 14.1261 73.3076 14.1261C72.278 14.1261 71.5573 14.2284 71.0425 14.5355C70.5277 14.8426 70.1159 15.2521 69.807 15.7639C69.4981 16.2757 69.1892 16.6851 69.0863 16.8899C68.9833 17.0946 68.5714 17.1969 68.1596 17.1969C67.7478 17.1969 67.3359 17.0946 67.027 16.7875C66.7182 16.4804 66.5122 16.1733 66.5122 15.7639C66.5122 15.0473 66.7182 14.4332 67.233 13.819C67.7478 13.2048 68.4685 12.693 69.4981 12.1812C70.5277 11.7717 71.7632 11.567 73.3076 11.567C75.0579 11.567 76.3964 11.7717 77.3231 12.1812C78.3527 12.5906 78.9704 13.2048 79.3823 14.1261C79.7941 15.0473 80 16.1733 80 17.6064C80 18.5276 80 19.2442 80 19.9607C80 20.5749 80 21.2914 80 22.1103C80 22.8269 80.103 23.6458 80.4119 24.3623C80.7207 25.0788 80.8237 25.693 80.8237 25.8977C80.8237 26.3072 80.6178 26.6143 80.3089 27.0237C80 27.4332 79.4852 27.5355 79.0734 27.5355C78.6615 27.5355 78.2497 27.3308 77.8379 27.0237C77.3231 26.5119 76.9112 25.8977 76.4994 25.1812ZM76.1905 19.6536C75.5727 19.8584 74.7491 20.0631 73.7195 20.2678C72.5869 20.4725 71.8662 20.6773 71.4543 20.7796C71.0425 20.882 70.6307 21.0867 70.2188 21.3938C69.807 21.7009 69.6011 22.1103 69.6011 22.7245C69.6011 23.3387 69.807 23.8505 70.3218 24.2599C70.7336 24.6694 71.3514 24.8741 72.0721 24.8741C72.7928 24.8741 73.5135 24.6694 74.2343 24.3623C74.852 24.0552 75.3668 23.5434 75.6757 23.0316C75.9846 22.5198 76.1905 21.4962 76.1905 20.1654V19.6536Z" fill="white"/>
<path d="M97.915 14.4332V25.6931C97.915 27.0238 97.8121 28.0474 97.5032 28.9686C97.1943 29.8899 96.7825 30.7088 96.1647 31.2206C95.547 31.8348 94.7233 32.2442 93.7966 32.5513C92.87 32.8584 91.6345 32.9608 90.0901 32.9608C88.7516 32.9608 87.5161 32.7561 86.4865 32.449C85.4569 32.1419 84.6332 31.6301 84.0154 31.0159C83.3977 30.4017 83.1917 29.7875 83.1917 29.1734C83.1917 28.6616 83.3977 28.3545 83.7065 28.0474C84.0154 27.7403 84.4273 27.6379 84.8391 27.6379C85.4569 27.6379 85.8687 27.8427 86.3835 28.3545C86.5894 28.5592 86.7953 28.8663 87.0013 29.1734C87.2072 29.4805 87.5161 29.6852 87.722 29.8899C87.9279 30.0946 88.3397 30.197 88.7516 30.2994C89.1634 30.4017 89.5753 30.4017 90.0901 30.4017C91.1197 30.4017 91.8404 30.2994 92.4582 29.9923C92.973 29.6852 93.3848 29.2757 93.5907 28.8663C93.7966 28.3545 93.8996 27.8427 94.0026 27.2285C94.0026 26.6143 94.1055 25.6931 94.1055 24.4647C93.4878 25.2836 92.767 25.8978 92.0463 26.4096C91.3256 26.9214 90.296 27.0238 89.2664 27.0238C87.9279 27.0238 86.7954 26.7167 85.8687 26.0001C84.9421 25.386 84.1184 24.3623 83.6036 23.2364C83.0888 22.008 82.7799 20.6773 82.7799 19.1419C82.7799 18.0159 82.9858 16.8899 83.2947 15.9686C83.6036 15.0474 84.1184 14.2285 84.6332 13.6143C85.2509 13.0001 85.8687 12.4883 86.6924 12.1812C87.4131 11.8742 88.3397 11.6694 89.2664 11.6694C90.3989 11.6694 91.3256 11.8742 92.1493 12.2836C92.973 12.6931 93.6937 13.4096 94.4144 14.2285V13.7167C94.4144 13.0001 94.6203 12.4883 94.9292 12.1812C95.2381 11.7718 95.6499 11.6694 96.1647 11.6694C96.8854 11.6694 97.4002 11.8742 97.7091 12.386C97.8121 12.8978 97.915 13.6143 97.915 14.4332ZM86.6924 19.449C86.6924 20.9844 87.0013 22.2127 87.722 23.0316C88.4427 23.8505 89.2664 24.26 90.399 24.26C91.0167 24.26 91.6345 24.0553 92.2522 23.7482C92.87 23.4411 93.2818 22.9293 93.6937 22.2127C94.1055 21.4962 94.2085 20.6773 94.2085 19.6537C94.2085 18.1183 93.8996 16.8899 93.1789 15.9686C92.4582 15.0474 91.5315 14.6379 90.399 14.6379C89.2664 14.6379 88.3397 15.0474 87.722 15.8663C87.0013 16.6852 86.6924 17.8112 86.6924 19.449Z" fill="white"/>
<path d="M112.638 25.1812V24.7717C112.124 25.3859 111.609 25.8977 111.094 26.2048C110.579 26.6142 110.064 26.819 109.447 27.0237C108.829 27.2284 108.211 27.3308 107.49 27.3308C106.564 27.3308 105.74 27.1261 104.916 26.7166C104.093 26.3072 103.475 25.7953 102.857 25.0788C102.239 24.3623 101.828 23.441 101.519 22.5198C101.21 21.4961 101.107 20.4725 101.107 19.3465C101.107 16.8898 101.725 15.0473 102.857 13.7166C104.093 12.3859 105.637 11.6694 107.593 11.6694C108.726 11.6694 109.653 11.8741 110.476 12.2835C111.3 12.693 112.021 13.3072 112.741 14.0237V8.29141C112.741 7.47251 112.947 6.85834 113.256 6.44889C113.565 6.03944 114.08 5.83472 114.595 5.83472C115.212 5.83472 115.624 6.03944 115.933 6.34653C116.242 6.75598 116.448 7.26779 116.448 7.98432V25.0788C116.448 25.7953 116.242 26.4095 115.933 26.7166C115.624 27.1261 115.109 27.2284 114.595 27.2284C114.08 27.2284 113.668 27.0237 113.256 26.6142C112.844 26.2048 112.638 25.8977 112.638 25.1812ZM104.916 19.4489C104.916 20.4725 105.122 21.3938 105.431 22.1103C105.74 22.8268 106.255 23.441 106.77 23.7481C107.387 24.1576 108.005 24.2599 108.623 24.2599C109.344 24.2599 109.961 24.0552 110.476 23.7481C111.094 23.441 111.506 22.8268 111.815 22.1103C112.124 21.3938 112.329 20.4725 112.329 19.3465C112.329 18.3229 112.124 17.4016 111.815 16.6851C111.506 15.9686 110.991 15.3544 110.476 14.945C109.858 14.5355 109.241 14.3308 108.623 14.3308C107.902 14.3308 107.284 14.5355 106.667 14.945C106.152 15.3544 105.637 15.9686 105.328 16.6851C105.122 17.6064 104.916 18.5276 104.916 19.4489Z" fill="white"/>
<path d="M134.775 19.5513C134.775 20.6773 134.569 21.8033 134.26 22.7246C133.848 23.7482 133.333 24.5671 132.716 25.2836C132.098 26.0001 131.171 26.512 130.245 26.9214C129.318 27.3309 128.185 27.4332 127.053 27.4332C125.92 27.4332 124.788 27.2285 123.861 26.819C122.934 26.4096 122.111 25.8978 121.39 25.1812C120.669 24.4647 120.154 23.6458 119.846 22.7246C119.537 21.8033 119.331 20.6773 119.331 19.5513C119.331 18.4253 119.537 17.2994 119.846 16.2757C120.257 15.2521 120.772 14.4332 121.39 13.819C122.008 13.2049 122.934 12.5907 123.861 12.1812C124.788 11.7718 125.92 11.6694 127.053 11.6694C128.185 11.6694 129.318 11.8742 130.245 12.2836C131.171 12.6931 131.995 13.2049 132.716 13.9214C133.436 14.6379 133.951 15.4568 134.26 16.3781C134.672 17.2994 134.775 18.323 134.775 19.5513ZM130.862 19.5513C130.862 18.0159 130.553 16.7875 129.833 15.8663C129.112 14.945 128.185 14.5356 127.053 14.5356C126.332 14.5356 125.611 14.7403 124.994 15.1497C124.376 15.5592 123.964 16.1734 123.655 16.8899C123.346 17.7088 123.14 18.5277 123.14 19.5513C123.14 20.5749 123.346 21.4962 123.655 22.2127C123.964 22.9293 124.376 23.5434 124.994 23.9529C125.611 24.3623 126.229 24.5671 127.053 24.5671C128.185 24.5671 129.215 24.1576 129.833 23.2364C130.553 22.3151 130.862 21.0868 130.862 19.5513Z" fill="white"/>
<path d="M150.837 19.8584V24.9765C150.837 25.7954 150.631 26.4096 150.322 26.819C149.91 27.2285 149.498 27.4332 148.88 27.4332C148.263 27.4332 147.851 27.2285 147.439 26.819C147.027 26.4096 146.924 25.7954 146.924 24.9765V18.8348C146.924 17.8112 146.924 17.0946 146.821 16.5828C146.718 16.071 146.615 15.5592 146.306 15.2521C145.997 14.945 145.586 14.7403 144.865 14.7403C143.629 14.7403 142.703 15.1497 142.291 16.071C141.879 16.9923 141.673 18.2206 141.673 19.8584V25.0789C141.673 25.8978 141.467 26.512 141.158 26.9214C140.849 27.3309 140.335 27.5356 139.717 27.5356C139.099 27.5356 138.687 27.3309 138.275 26.9214C137.864 26.512 137.761 25.8978 137.761 25.0789V13.9214C137.761 13.2049 137.967 12.5907 138.275 12.2836C138.584 11.9765 139.099 11.6694 139.614 11.6694C140.129 11.6694 140.643 11.8742 140.952 12.1812C141.261 12.4883 141.467 13.0001 141.467 13.6143V14.0238C142.188 13.2049 142.909 12.5907 143.629 12.2836C144.453 11.8742 145.277 11.6694 146.203 11.6694C147.233 11.6694 148.057 11.8742 148.777 12.2836C149.498 12.6931 150.013 13.3072 150.528 14.0238C151.145 13.2049 151.866 12.5907 152.69 12.2836C153.411 11.8742 154.234 11.6694 155.161 11.6694C156.19 11.6694 157.117 11.8742 157.941 12.2836C158.662 12.6931 159.279 13.3072 159.691 14.0238C160 14.7403 160.206 15.8663 160.206 17.2994V24.8742C160.206 25.6931 160 26.3072 159.691 26.7167C159.279 27.1261 158.867 27.3309 158.25 27.3309C157.632 27.3309 157.22 27.1261 156.808 26.7167C156.396 26.3072 156.293 25.6931 156.293 24.8742V18.4253C156.293 17.6064 156.293 16.8899 156.19 16.3781C156.088 15.8663 155.882 15.4568 155.573 15.1497C155.264 14.8427 154.749 14.6379 154.131 14.6379C153.616 14.6379 153.102 14.7403 152.69 15.0474C152.278 15.3545 151.866 15.7639 151.66 16.2757C151.042 16.9923 150.837 18.1183 150.837 19.8584Z" fill="white"/>
</g>
<defs>
<clipPath id="clip0_7197_480">
<rect width="160" height="39" fill="white"/>
</clipPath>
</defs>
</svg>
